<?xml version="1.0" encoding="UTF-8"?>
<!DOCTYPE svg PUBLIC "-//W3C//DTD SVG 1.1//EN" "http://www.w3.org/Graphics/SVG/1.1/DTD/svg11.dtd">
<svg xmlns="http://www.w3.org/2000/svg" version="1.1" width="571px" height="508px" style="shape-rendering:geometricPrecision; text-rendering:geometricPrecision; image-rendering:optimizeQuality; fill-rule:evenodd; clip-rule:evenodd" xmlns:xlink="http://www.w3.org/1999/xlink">
<g><path style="opacity:1" fill="#040302" d="M 357.5,216.5 C 409.069,217.171 460.736,217.838 512.5,218.5C 527.69,260.068 542.69,301.734 557.5,343.5C 542.69,385.266 527.69,426.932 512.5,468.5C 419.571,469.497 326.571,469.831 233.5,469.5C 233.832,427.33 233.499,385.33 232.5,343.5C 179.832,343.667 127.166,343.5 74.5,343C 53,337.5 39.5,324 34,302.5C 33.3333,221.833 33.3333,141.167 34,60.5C 39.5,39 53,25.5 74.5,20C 155.167,19.3333 235.833,19.3333 316.5,20C 338.449,25.6151 351.949,39.4484 357,61.5C 357.5,113.166 357.667,164.832 357.5,216.5 Z"/></g>
<g><path style="opacity:1" fill="#fefefe" d="M 237.5,217.5 C 241.437,210.624 246.104,204.291 251.5,198.5C 255.668,200.75 259.668,203.25 263.5,206C 271.034,206.964 273.701,203.798 271.5,196.5C 266.955,193.734 262.622,190.734 258.5,187.5C 261,183.833 263.5,180.167 266,176.5C 267.173,172.695 266.007,169.861 262.5,168C 260.365,167.365 258.365,167.699 256.5,169C 253.212,173.077 250.045,177.244 247,181.5C 240.25,177.208 233.417,173.041 226.5,169C 218.779,167.985 216.445,171.151 219.5,178.5C 226.5,183 233.5,187.5 240.5,192C 235.544,198.746 230.71,205.579 226,212.5C 225.109,217.053 226.942,219.72 231.5,220.5C 232.493,255.094 232.826,289.76 232.5,324.5C 180.832,324.667 129.166,324.5 77.5,324C 64.6667,320.5 56.5,312.333 53,299.5C 52.3333,220.833 52.3333,142.167 53,63.5C 56.4912,50.6754 64.6579,42.5088 77.5,39C 156.167,38.3333 234.833,38.3333 313.5,39C 326.333,42.5 334.5,50.6667 338,63.5C 338.5,114.832 338.667,166.166 338.5,217.5C 304.833,217.5 271.167,217.5 237.5,217.5 Z"/></g>
<g><path style="opacity:1" fill="#635fc8" d="M 229.5,73.5 C 244.063,72.7947 258.396,74.2947 272.5,78C 275.609,78.644 278.443,79.8107 281,81.5C 282.301,83.3646 282.635,85.3646 282,87.5C 275.854,103.129 270.854,119.129 267,135.5C 261.405,138.955 257.572,137.622 255.5,131.5C 257.869,121.028 260.369,110.695 263,100.5C 236.742,112.429 215.742,130.429 200,154.5C 197.591,158.734 195.424,163.067 193.5,167.5C 200.797,178.438 205.63,190.438 208,203.5C 208.667,213.5 208.667,223.5 208,233.5C 206.876,241.538 204.543,249.204 201,256.5C 194.413,265.814 186.247,267.647 176.5,262C 171.736,256.385 168.903,249.885 168,242.5C 165.744,218.21 168.91,194.71 177.5,172C 176.318,170.265 174.651,169.265 172.5,169C 161.195,167.394 152.028,171.228 145,180.5C 124.76,210.289 119.427,242.622 129,277.5C 130.939,286.23 127.772,289.397 119.5,287C 115.946,278.908 113.779,270.408 113,261.5C 109.183,229.773 116.183,200.773 134,174.5C 140.07,166.756 147.57,160.923 156.5,157C 165.522,154.45 174.188,155.283 182.5,159.5C 200.472,126.359 226.805,102.525 261.5,88C 248.177,86.3565 234.844,86.0231 221.5,87C 216.715,83.74 216.381,80.0734 220.5,76C 223.628,75.1588 226.628,74.3254 229.5,73.5 Z"/></g>
<g><path style="opacity:1" fill="#139074" d="M 147.5,81.5 C 151.025,81.3459 153.859,82.6792 156,85.5C 159.75,92.0021 163.75,98.3355 168,104.5C 172.696,113.129 170.196,116.962 160.5,116C 155.333,108.167 150.167,100.333 145,92.5C 142.6,87.9898 143.433,84.3231 147.5,81.5 Z"/></g>
<g><path style="opacity:1" fill="#169175" d="M 180.5,84.5 C 185.133,83.4582 188.299,85.1249 190,89.5C 191.167,95.3333 192.333,101.167 193.5,107C 191.913,113.255 188.247,114.921 182.5,112C 181.283,110.352 180.45,108.519 180,106.5C 178.67,100.201 178.004,93.8679 178,87.5C 179.045,86.6266 179.878,85.6266 180.5,84.5 Z"/></g>
<g><path style="opacity:1" fill="#0e8f73" d="M 111.5,104.5 C 125.768,107.967 138.768,114.134 150.5,123C 154,125.833 157.5,128.667 161,131.5C 161.947,138.885 158.78,141.719 151.5,140C 139.46,129.974 126.127,121.974 111.5,116C 107.555,112.169 107.555,108.336 111.5,104.5 Z"/></g>
<g><path style="opacity:1" fill="#d84b3c" d="M 237.5,217.5 C 236.564,218.974 235.23,219.974 233.5,220.5C 232.833,220.5 232.167,220.5 231.5,220.5C 226.942,219.72 225.109,217.053 226,212.5C 230.71,205.579 235.544,198.746 240.5,192C 233.5,187.5 226.5,183 219.5,178.5C 216.445,171.151 218.779,167.985 226.5,169C 233.417,173.041 240.25,177.208 247,181.5C 250.045,177.244 253.212,173.077 256.5,169C 258.365,167.699 260.365,167.365 262.5,168C 266.007,169.861 267.173,172.695 266,176.5C 263.5,180.167 261,183.833 258.5,187.5C 262.622,190.734 266.955,193.734 271.5,196.5C 273.701,203.798 271.034,206.964 263.5,206C 259.668,203.25 255.668,200.75 251.5,198.5C 246.104,204.291 241.437,210.624 237.5,217.5 Z"/></g>
<g><path style="opacity:1" fill="#fafafd" d="M 186.5,182.5 C 189.634,185.41 191.801,189.077 193,193.5C 196.86,207.996 197.527,222.662 195,237.5C 193.726,241.99 192.059,246.323 190,250.5C 187.667,253.167 185.333,253.167 183,250.5C 182.138,248.913 181.471,247.246 181,245.5C 178.249,224.093 180.082,203.093 186.5,182.5 Z"/></g>
<g><path style="opacity:1" fill="#bf9898" d="M 357.5,216.5 C 409.511,215.838 461.177,216.504 512.5,218.5C 460.736,217.838 409.069,217.171 357.5,216.5 Z"/></g>
<g><path style="opacity:1" fill="#d8bdbc" d="M 231.5,220.5 C 232.167,220.5 232.833,220.5 233.5,220.5C 233.832,255.337 233.498,290.004 232.5,324.5C 232.826,289.76 232.493,255.094 231.5,220.5 Z"/></g>
<g><path style="opacity:1" fill="#fd3030" d="M 246.5,229.5 C 331.836,229.167 417.169,229.5 502.5,230.5C 516.364,268.09 530.03,305.757 543.5,343.5C 529.636,381.09 515.97,418.757 502.5,456.5C 417.169,457.5 331.836,457.833 246.5,457.5C 246.5,381.5 246.5,305.5 246.5,229.5 Z"/></g>
<g><path style="opacity:1" fill="#c5a1a0" d="M 232.5,343.5 C 233.499,385.33 233.832,427.33 233.5,469.5C 326.571,469.831 419.571,469.497 512.5,468.5C 419.506,470.498 326.173,471.164 232.5,470.5C 232.5,428.167 232.5,385.833 232.5,343.5 Z"/></g>
</svg>
